<svg width="14" height="14" viewBox="0 0 14 14" fill="none" xmlns="http://www.w3.org/2000/svg">
<path d="M7.00009 11.4167L3.91676 13.7709C3.76398 13.8959 3.59731 13.9548 3.41676 13.9476C3.2362 13.9409 3.07648 13.889 2.93759 13.7917C2.7987 13.6945 2.6912 13.5626 2.61509 13.3959C2.53843 13.2292 2.53482 13.0487 2.60426 12.8542L3.79176 9.00008L0.770926 6.85425C0.60426 6.74314 0.500093 6.5973 0.458426 6.41675C0.41676 6.23619 0.423704 6.06953 0.47926 5.91675C0.534815 5.76397 0.632037 5.62842 0.770926 5.51008C0.909815 5.3923 1.07648 5.33342 1.27093 5.33342H5.00009L6.20843 1.33341C6.27787 1.13897 6.38565 0.989526 6.53176 0.885082C6.67731 0.781193 6.83343 0.729248 7.00009 0.729248C7.16676 0.729248 7.32287 0.781193 7.46843 0.885082C7.61454 0.989526 7.72231 1.13897 7.79176 1.33341L9.00009 5.33342H12.7293C12.9237 5.33342 13.0904 5.3923 13.2293 5.51008C13.3681 5.62842 13.4654 5.76397 13.5209 5.91675C13.5765 6.06953 13.5834 6.23619 13.5418 6.41675C13.5001 6.5973 13.3959 6.74314 13.2293 6.85425L10.2084 9.00008L11.3959 12.8542C11.4654 13.0487 11.462 13.2292 11.3859 13.3959C11.3093 13.5626 11.2015 13.6945 11.0626 13.7917C10.9237 13.889 10.764 13.9409 10.5834 13.9476C10.4029 13.9548 10.2362 13.8959 10.0834 13.7709L7.00009 11.4167Z" fill="#FFB648"/>
</svg>
