<svg width="30" height="30" viewBox="0 0 30 30" fill="none" xmlns="http://www.w3.org/2000/svg">
<path d="M26.2161 8.39675C25.6356 9.17115 24.9338 9.84667 24.138 10.3972C24.138 10.5995 24.138 10.8018 24.138 11.0153C24.1443 14.6889 22.677 18.2114 20.0648 20.7931C17.4526 23.3749 13.9141 24.7999 10.2427 24.7486C8.12008 24.7558 6.02468 24.2711 4.12062 23.3326C4.01794 23.2878 3.95173 23.1863 3.95212 23.0741V22.9505C3.95212 22.7891 4.08288 22.6584 4.24418 22.6584C6.33062 22.5895 8.34262 21.8661 9.99552 20.5905C8.10701 20.5524 6.40783 19.4336 5.62584 17.7134C5.58636 17.6195 5.59864 17.5116 5.65831 17.429C5.71796 17.3464 5.81634 17.3009 5.91791 17.3089C6.49187 17.3665 7.07157 17.3131 7.62534 17.1515C5.54058 16.7188 3.97411 14.988 3.74992 12.8696C3.74196 12.768 3.78749 12.6696 3.87009 12.6099C3.95268 12.5503 4.06039 12.5379 4.15432 12.5775C4.71377 12.8244 5.31771 12.9544 5.92914 12.9595C4.10239 11.7606 3.31336 9.48006 4.00828 7.40778C4.08002 7.20641 4.25236 7.05765 4.46197 7.01618C4.67157 6.97469 4.88754 7.0466 5.03049 7.20549C7.49558 9.82906 10.8826 11.3925 14.4775 11.566C14.3855 11.1986 14.3402 10.821 14.3427 10.4422C14.3763 8.4559 15.6053 6.68651 17.4543 5.96234C19.3032 5.23818 21.4062 5.70254 22.7788 7.13805C23.7143 6.95982 24.6188 6.64557 25.4635 6.20526C25.5253 6.16664 25.6038 6.16664 25.6657 6.20526C25.7043 6.26717 25.7043 6.34565 25.6657 6.40755C25.2566 7.3444 24.5655 8.13015 23.6887 8.65524C24.4565 8.5662 25.2107 8.38509 25.9353 8.1158C25.9963 8.07428 26.0765 8.07428 26.1375 8.1158C26.1886 8.13918 26.2268 8.18389 26.242 8.23803C26.2571 8.29216 26.2476 8.35023 26.2161 8.39675Z" fill="white"/>
</svg>
